<svg width="19" height="19" viewBox="0 0 19 19" fill="none" xmlns="http://www.w3.org/2000/svg">
<circle cx="9.69833" cy="9.64285" r="8.97396" stroke="black" stroke-width="0.5"/>
<path d="M12.1002 9.44516L9.0565 6.54507C9.00572 6.49666 8.93824 6.46965 8.86808 6.46965C8.79791 6.46965 8.73044 6.49666 8.67965 6.54507L8.67638 6.54835C8.65167 6.57182 8.632 6.60007 8.61856 6.63138C8.60511 6.66269 8.59818 6.69642 8.59818 6.73049C8.59818 6.76457 8.60511 6.79829 8.61856 6.8296C8.632 6.86091 8.65167 6.88916 8.67638 6.91263L11.5426 9.64341L8.67638 12.3731C8.65167 12.3966 8.632 12.4248 8.61856 12.4561C8.60511 12.4874 8.59818 12.5212 8.59818 12.5552C8.59818 12.5893 8.60511 12.623 8.61856 12.6543C8.632 12.6857 8.65167 12.7139 8.67638 12.7374L8.67965 12.7407C8.73044 12.7891 8.79791 12.8161 8.86808 12.8161C8.93824 12.8161 9.00572 12.7891 9.0565 12.7407L12.1002 9.84057C12.127 9.81507 12.1483 9.78439 12.1629 9.75041C12.1774 9.71643 12.1849 9.67984 12.1849 9.64286C12.1849 9.60589 12.1774 9.5693 12.1629 9.53532C12.1483 9.50133 12.127 9.47066 12.1002 9.44516Z" fill="black"/>
</svg>
